<?xml version="1.0" encoding="utf-8"?>
<!-- Generator: Adobe Illustrator 23.0.1, SVG Export Plug-In . SVG Version: 6.00 Build 0)  -->
<svg version="1.1" id="Layer_1" xmlns="http://www.w3.org/2000/svg" xmlns:xlink="http://www.w3.org/1999/xlink" x="0px" y="0px"
	 viewBox="0 0 50 50" style="enable-background:new 0 0 50 50;" xml:space="preserve">
<style type="text/css">
	.st0{fill:#FFFFFF;}
</style>
<g>
	<rect x="0" y="0" width="50" height="50"/>
</g>
<g>
	<path class="st0" d="M6.81,25.38c0.46-0.05,1.39-0.15,2.56-0.27c0.88-7.64,4.7-13.05,12.49-14.75c5.03-1.1,9.6,0.28,13.5,3.95
		c-1.17,1.01-2.27,1.96-3.59,3.1c-3.69-2.79-8.14-3.74-12.72-0.7c-2.86,1.9-4.5,4.62-4.44,8.33c1.12,0.16,2.11,0.3,3.43,0.48
		c-2.21,1.96-4.17,3.7-5.89,5.24C10.56,29.16,8.63,27.22,6.81,25.38z"/>
	<path class="st0" d="M34.87,24.92c-1.24-0.13-2.18-0.23-3.43-0.37c2.18-2.07,4.11-3.92,6.11-5.82c1.75,1.79,3.63,3.72,5.64,5.78
		c-1.06,0.15-2.07,0.29-3.17,0.45c-0.89,7.66-4.71,12.95-12.39,14.66c-5.12,1.14-9.73-0.28-13.59-3.97
		c1.15-1.19,2.16-2.25,3.26-3.38c3.96,3.05,8.15,3.95,12.58,1.34C33.03,31.73,34.78,28.92,34.87,24.92z"/>
</g>
</svg>
